<svg xmlns="http://www.w3.org/2000/svg" width="44" height="41" viewBox="0 0 44 41">
  <defs>
    <style>
      .cls-1 {
        fill: #374c67;
        fill-rule: evenodd;
      }
    </style>
  </defs>
  <path id="outline" class="cls-1" d="M963.628,2663.72a0.747,0.747,0,0,1-.628.3h-6v6.01a1.1,1.1,0,0,1-.3.63,1.208,1.208,0,0,1-1.592.06l-7.633-7.64a16.793,16.793,0,0,1-10.964,0l-7.617,7.61a1.208,1.208,0,0,1-1.592-.06,1.1,1.1,0,0,1-.3-0.63v-6h-6a0.747,0.747,0,0,1-.628-0.3,1.256,1.256,0,0,1-.094-1.62l6.85-6.85a17,17,0,1,1,29.739.01l6.855,6.86A1.256,1.256,0,0,1,963.628,2663.72Zm-40.421-1.7,4.862-.01a0.745,0.745,0,0,1,.606.29,0.986,0.986,0,0,1,.276.6v4.86l5.534-5.53a17.1,17.1,0,0,1-6.23-5.26ZM957,2647a15,15,0,1,0-15,15A15,15,0,0,0,957,2647Zm-1.26,9.98a17.114,17.114,0,0,1-6.238,5.26l5.547,5.55v-4.86a0.988,0.988,0,0,1,.276-0.61,0.745,0.745,0,0,1,.606-0.29l4.861,0.01Zm-7.105-7.38q3.446,11.79-6.695,4.76-10.227,6.9-6.636-4.85-9.765-7.515,2.6-7.76,4.191-11.55,8.239.05Q958.494,2642.19,948.635,2649.6Zm-4.016-5.99c-2.121-7.09-3.116-7.07-5.235-.03-7.643,0-7.755,1.1-1.649,4.8-2.459,7.4-1.8,7.96,4.217,2.99,6.077,4.89,6.808,4.38,4.255-2.94C952.477,2644.66,952.2,2643.61,944.619,2643.61Z" transform="translate(-920 -2630)"/>
</svg>
