<svg xmlns="http://www.w3.org/2000/svg" width="41" height="39" viewBox="0 0 41 39">
  <defs>
    <style>
      .cls-1 {
        fill: #ffda8e;
        fill-rule: evenodd;
      }
    </style>
  </defs>
  <path id="color" class="cls-1" d="M963.653,2666.08a0.681,0.681,0,0,1-.585.28h-5.591v5.72a1.045,1.045,0,0,1-.28.6,1.109,1.109,0,0,1-1.483.06l-7.113-7.27a15.35,15.35,0,0,1-10.217-.01l-7.1,7.25a1.109,1.109,0,0,1-1.483-.06,1.039,1.039,0,0,1-.28-0.6v-5.71h-5.591a0.683,0.683,0,0,1-.586-0.28,1.228,1.228,0,0,1-.087-1.55l6.383-6.51a16.368,16.368,0,0,1-1.983-7.83,15.844,15.844,0,1,1,31.682,0,16.416,16.416,0,0,1-1.987,7.84l6.387,6.52A1.227,1.227,0,0,1,963.653,2666.08Zm-14.018-14.48q3.446,11.79-6.695,4.76-10.227,6.9-6.636-4.85-9.766-7.515,2.6-7.76,4.191-11.55,8.239.05Q959.494,2644.19,949.635,2651.6Z" transform="translate(-923 -2634)"/>
</svg>
