<svg xmlns="http://www.w3.org/2000/svg" width="44" height="44" viewBox="0 0 44 44">
  <defs>
    <style>
      .cls-1 {
        fill: #374c67;
        fill-rule: evenodd;
      }
    </style>
  </defs>
  <path id="outline" class="cls-1" d="M463,2673H421a1,1,0,0,1-1-1v-42a1,1,0,0,1,1-1h42a1,1,0,0,1,1,1v42A1,1,0,0,1,463,2673Zm-2.414-2-4-4H427.414l-4,4h37.172ZM456,2645.01v-4.67l-28,16.08v4.67Zm-28,18.41V2665h5v-4.45Zm7-4.02v5.6h6v-9.05Zm8-4.6V2665h6v-13.64Zm13-7.46-5,2.87V2665h5v-17.66Zm-28,6.75,5-2.87V2637h-5v17.09Zm7-4.02,6-3.45V2637h-6v13.07Zm8-4.6,6.05-3.47H449v-5h-6v8.47Zm8-4.59,5-2.87V2637h-5v3.88Zm-29,28.71,4-4v-29.18l-4-4v37.18Zm1.414-38.59,4,4h29.172l4-4H423.414ZM462,2632.41l-4,4v29.18l4,4v-37.18Z" transform="translate(-420 -2629)"/>
</svg>
